<?xml version="1.0" encoding="UTF-8"?>
<svg xmlns="http://www.w3.org/2000/svg" version="1.1" viewBox="0 0 500 500">
  <!-- Generator: Adobe Illustrator 29.2.1, SVG Export Plug-In . SVG Version: 2.1.0 Build 116)  -->
  <defs>
    <style>
      .st0 {
        display: none;
      }

      .st1 {
        fill-rule: evenodd;
      }
    </style>
  </defs>
  <g id="Layer_1" class="st0">
    <path class="st1" d="M248.3,8c6.5,0,17.3.4,23.9,1,6.6.7,17.6,2.3,24.5,3.7s18,4.2,24.5,6.1c6.6,2,15.2,4.9,19.2,6.6,3.9,1.6,13.6,6.2,21.5,10.2s18.1,9.8,22.8,12.9c4.6,3.1,13.2,9.4,19.1,14.1,5.9,4.6,15.6,13.1,21.5,19,5.8,5.8,14.7,15.7,19.7,21.9,5,6.3,12,16,15.6,21.6s9,15,12.1,20.9,8.2,17.2,11.3,25.1c3.1,7.9,7.1,20.3,9,27.6,1.8,7.2,4.3,19.3,5.4,26.9,1.6,10.9,1.9,19,1.4,39.5-.5,21.5-1.1,28.1-3.7,40.3-1.8,8.1-5.1,20.5-7.4,27.7-2.4,7-6.8,18.5-9.8,25.4s-8.8,18.2-12.9,25.1-11.1,17.4-15.4,23.4c-4.4,5.9-13.7,16.8-20.8,24.3-7.1,7.5-17.7,17.5-23.6,22.2-5.9,4.8-15.1,11.6-20.3,15.1-5.3,3.5-13.4,8.2-18,10.4-6.8,3.3-9.3,4-13.2,3.4-2.6-.4-6.5-1.8-8.6-3.1-2.4-1.5-4.9-4.5-6.5-8-1.9-4.3-2.3-6.9-1.7-10.5.5-2.6,1.7-6.1,2.6-7.8,1-1.6,3.3-3.9,5-5.1,1.8-1.1,8.9-5.5,15.8-9.6s18.2-12.1,25.2-17.8c6.9-5.7,16.3-14.6,20.9-19.6,4.6-5.1,10.4-12,12.9-15.4,2.6-3.3,7.5-10.8,11.1-16.5,3.6-5.8,8.9-15.8,11.8-22.2,2.9-6.4,6.6-15.9,8.3-21.3,1.7-5.3,3.9-13.1,5-17.4,1.1-4.2,2.7-14.5,3.6-22.7s1.7-20.3,1.7-26.9-.8-19-1.8-27.5c-1-8.6-2.8-19.9-4.1-25.2-1.2-5.2-4.4-15.2-6.9-22.1-2.6-6.9-7.8-18.5-11.5-25.7-3.7-7.3-10-17.8-13.9-23.4-4-5.5-11.2-14.4-16-19.7-4.8-5.3-13.6-13.7-19.4-18.7-5.9-5-15-11.9-20.3-15.3-5.3-3.5-16-9.5-23.9-13.3-8.5-4.2-20.5-8.8-29.3-11.4-8.3-2.3-21.2-5.4-28.8-6.7-10.7-2-18.6-2.5-36-2.5s-25.1.5-35.8,2.5c-7.6,1.3-20.5,4.4-28.8,6.7-8.8,2.6-20.8,7.2-29.3,11.4-7.9,3.8-18.6,9.8-23.9,13.3-5.3,3.4-14.2,10.1-19.8,14.8-5.5,4.8-14.3,13.2-19.4,18.7-5.2,5.5-13.1,15.5-17.5,22-4.5,6.6-10.6,16.9-13.6,22.8-2.9,5.9-7.4,15.9-9.8,22.1-2.5,6.3-5.8,16.2-7.3,22.1-1.5,6-3.6,18.1-4.6,27-1.1,8.8-1.9,21.5-1.9,28.1s.8,18.7,1.7,26.9c.9,8.2,2.5,18.5,3.6,22.7,1.1,4.3,3.3,12.1,5,17.4,1.7,5.4,5.4,14.9,8.3,21.3,2.9,6.4,8,16.1,11.4,21.6,3.3,5.4,8.9,13.6,12.5,18.2,3.5,4.6,10.6,12.8,15.7,18.1,5.2,5.4,14.5,13.8,20.7,18.7,6.3,4.9,14.4,10.8,18,13.1,3.6,2.3,9.3,5.5,12.5,7.2,3.3,1.7,7.8,5,9.9,7.4,2.5,2.8,4.2,6.1,4.7,9.4.6,4,.1,6.4-2.1,11.1-2.3,4.6-4.1,6.5-8.3,8.6-2.9,1.5-6.7,2.7-8.3,2.7s-6.8-1.7-11.4-3.9c-4.6-2.2-12.7-6.9-18-10.4-5.2-3.5-14.4-10.3-20.3-15.1-5.9-4.7-16.5-14.7-23.6-22.2s-16.4-18.4-20.8-24.3c-4.3-6-11.3-16.5-15.4-23.4-4.1-6.9-9.9-18.2-12.9-25.1s-7.4-18.4-9.8-25.4c-2.3-7.2-5.6-19.6-7.4-27.7-2.6-12.2-3.2-18.8-3.7-40.3C-.3,244.6,0,236.5,1.6,225.6c1.1-7.6,3.6-19.7,5.5-26.9,1.8-7.3,5.8-19.7,8.9-27.6,3.1-7.9,8.1-19.2,11.2-25.1,3.1-5.9,8.6-15.3,12.2-20.9s10.7-15.4,15.8-21.9c5.1-6.4,14.3-16.5,20.4-22.5,6-5.9,16.1-14.7,22.4-19.5,6.2-4.9,15.4-11.4,20.3-14.6,5-3.1,17.1-9.7,27-14.4,9.9-4.9,24-10.6,31.7-12.9,7.5-2.2,19.4-5.2,26.3-6.6,6.9-1.4,17.1-3,22.7-3.6,5.6-.5,15.6-1,22.3-1.1h0ZM247.6,84.5c2.3,0,9.9.4,16.8,1.1s18,2.7,24.5,4.3c6.6,1.7,17.4,5.2,24,7.8,6.5,2.6,14.4,6.2,17.3,7.9,3,1.7,10.2,6.4,16.2,10.3,6.2,4.2,16.3,12.8,24,20.5,7.3,7.2,16.5,17.5,20.3,22.8,3.9,5.2,10.1,15.5,13.8,22.7,3.6,7.2,8.3,18.3,10.4,24.5,2.1,6.3,4.7,16.5,5.8,22.8,1.4,7.4,2.1,17.5,2.1,29.3s-.7,21.8-2.2,29.9c-1.1,6.6-3.6,16.5-5.4,22.1-1.9,5.6-5.9,15.6-9,22.3-3.2,6.5-7.7,15-10.1,18.8-2.3,3.8-4.7,6.8-5.3,6.6-.6-.2-3.4-6.8-6.4-14.7-2.9-7.9-6.6-17.7-11-28.8l2.5-6.6c1.3-3.6,3.5-10.6,4.7-15.5,1.2-5,2.8-14.6,3.4-21.6.8-8.3.8-16.8.1-25.1-.7-6.9-2.6-17.9-4.2-24.5-1.7-6.6-5.2-16.6-7.9-22.1-2.7-5.6-7.4-14-10.3-18.6-3-4.6-10.4-13.2-16.4-19.2-6-5.9-14.9-13.3-19.9-16.4-4.9-3.1-13.3-7.4-18.5-9.7-5.3-2.3-15-5.7-21.6-7.5-11.2-3.2-13.3-3.4-35.4-3.3-21.1,0-24.3.3-34.7,3.1-6.2,1.7-15.9,5-21.5,7.4-5.6,2.4-14.2,6.9-19.1,10-5,3.1-13.9,10.5-19.9,16.4-6,6-13.4,14.6-16.3,19.2-3,4.6-7.3,12.2-9.6,16.8s-5.3,11.8-6.7,16.1c-1.3,4.3-3.4,12.6-4.5,18.6-1.1,6.3-2,16.9-2,25.7s.6,19,1.5,23.9c.8,5,3.1,14.1,5.1,20.4,2.2,7.2,3.2,12.4,2.7,14.3-.4,1.7-3.4,10.3-6.7,19.3-3.3,8.8-6.6,17.6-7.4,19.4-.8,1.9-1.7,3.4-2,3.3-.4,0-2.6-3.1-4.9-6.9-2.4-3.8-6.8-12-9.8-18.2-3-6.4-7-16.3-9-22.3-2-5.9-4.6-16.1-5.7-22.7-1.4-7.6-2.2-18.3-2.3-29.3,0-12.1.6-21.2,2.2-29.9,1.2-6.9,4.1-18,6.4-24.6,2.2-6.5,7.1-17.6,10.7-24.5,3.7-6.9,9.6-16.6,13.3-21.5,3.6-5,12.5-15,19.9-22.2,7.6-7.7,17.8-16.3,24-20.5,6-3.9,13.2-8.6,16.2-10.3,2.9-1.7,10.8-5.3,17.3-7.9,6.6-2.6,17.5-6.1,24.3-7.8,6.7-1.7,16.7-3.6,22.1-4.2,5.4-.5,11.8-1.1,14.1-1.2h0Z"/>
    <path d="M249.6,183l114.5,217.2-114-33.6-115.1,33.6,114.6-217.2Z"/>
  </g>
  <g id="Layer_3">
    <path d="M-20.4,230.1v-2.3c2.9-5,8.2-7.2,12.3-2,2.5,3.2,1.8,8.2-2.3,9.4-4.7,1.3-8.2-.7-10-5.1Z"/>
    <path d="M238.7,31.3l.4,3.5-2-.2c-.9-.6-.3-2.9.8-3.3h.8Z"/>
    <path d="M242.6,402.3c-2.2,5.3-7.3,10.9-12.4,13.6s-9.6,2.4-14,4-6.8,4.4-9.4,2.4-.6-4.2-1-6.8-1.4-2.5-1.5-4c-.2-2.3,3.8-10.7,1.3-12.3s-7.9,1-8,3.9l-4.6.5c-1.2,3-2.8,4.6-6.1,5s-8.4.4-12.5.8c-.9-.2-5.1-3.5-5.5-4.3-.7-1.4-.8-4-1.6-5.8s-1.7-3.4-4.1-4.5-6.3-1.6-7.4-2.4-.9-1.8-1.4-2.5-2.2-.9-.8-1.7c3.9-2.3,7.8-3.5,11.1-6.9s3.4-5.4,5.2-8.1,7.1-7.2,5.5-11.5-9.5-11.7-13.2-16.1c.4-.6.6-.6,1.3-.5,2.8.3,5.9,6,7.7,8.3s4.1,4.8,6.1,7.2c1.6-2.1,7.2-7.6,7.3-9.9-4.2-24-4.2-48.2-3.9-72.5,0-1.1-1.4-1-1.9-1.5-.8-.8-2.8-18.9-3.4-21.8-.9-4.9-2.4-10-4.6-14.5s-2.3-3.2-2.7-4.3c-.7-1.8,0-3.9-.8-5.4s-5.8-4-6.5-6.8.7-3.8-1.2-5.7c1.8-1.9,3.8-3.6,3.5-6.5,2.9,1.3,3.3-.8,5.1-1.7s6.2-.9,7.5-.5,3,3.4,3.4,1.1h.7c2.9,5.3,5.3,9.5,4.3,15.9-1.2-.7-2.5-.3-3.4.7-1.7,2.2,2.3,6.4.7,10.1-3.2,7.3-2.3,10.2-1.3,17.8s0,4.5.4,6.2,1.3,1.3,1.6,2.4c.5,2.8-1,6.9-.4,9.9.7-.2,1-1.1,1.1-1.8.9-5.7,0-14.2.4-20.2s.1-1.7.8-1.7c.5,10.9-1,22.4,1,33.1s2.9,9.2,3,12.3-.7,1.9-.8,3.1c-.4,2.9.3,6.5,0,9.6l-1.6-1.6c-.8.6-.1,11.2,0,13.1.4,5.3.9,10.8,2.7,15.8h1.1c.7-4.1,1.4-8.2,1.9-12.3,1.4-11.1,1.4-21.9,1.2-33.1l4.3-61.9c.3-15-.8-30-3.7-44.7s-1.9-4.8-2.4-6.6-.1-3.4-.6-5l-.8,2.9c-.3,5.3-.2,11.5-1.2,16.7s-.1,1.7-1.1,1.4c-.8-5.9-.2-11.8-.4-17.7s-.8-3.6-.3-5.4.9-1,1.2-1.5c1.1-2.5-.4-6.7-.5-9.4-.2-4.6,0-9.3.4-13.8l-36.1,4.7-.9,1.5-8,57.9,7.1,44.4-1.6,74.4c2.1,3,5.4,5.3,5.9,9.2-2.7.3-4.4-1.9-6.1-3.5-2.6,1.8-5.9,4.5-8.5,1l.5-39.7-4.5,1.6c.6,1.9,1.9,2.1,2.2,4.5,1.2,10.1-.3,25.8-1.2,36.2-.4,4.3-.7,11.2-1.6,15.2s-2.3,4.8-2.9,7.6c-1.1,4.6-1.2,9.8-1.8,14.6-1.4,1.3-6.4,4.8-8.2,3.6s.5-9.3,0-11.5c-2.1-.7-6.7-1.8-8.3-3.1s-1.1-2.9-1.6-3.9c-1.4-2.7-3.3-3.9-6.5-3.5,1.2-4.9,3.2-10.4,3.5-15.4s-.4-3.7-.4-5.4,1-5.7,1.2-8.2c2.7-34.9,1-70.5,1.6-105.6l10.6-63.1c-.5-2.7-6.7-2.3-8.8-2.1-4.3.3-8.5,1.8-12.7,2.1,2.1-3.1,8.4-3.7,12.1-4.4s6-.4,8-1,1.6-1.2,1.4-1.9c-1-1.4-12.8.9-15,1.3-16,3-31.5,8.3-47.5,11.6-1,0-1,0,0-.5,2.2-1.1,4.7-2.2,6.6-3.8l-25.6,4.3-2.4-.8c-.7-1.8,0-5.6,2.1-6.2s3.2,1.5,5.5.4,1.6-2.6,3-2.8,3.8.9,5.4.8l67.4-13.2c1.3-2.5.9-5.3,1-8s.6-2.4.3-4.2-.7-1.1-.7-1.6.7-.2.8-.5c.7-2.8.4-7.3.8-10.4,1.1-8.4,3.9-14.3,6.9-22,.9-2.3,1.3-5.7,2.5-7.6s11-8.7,11.2-9.5c0-5-1.7-9.9-3-14.7l6.5-5.6c1.7.7,4.3,1.4,5,3.1,2.2,5.4,2,16.4,1.9,22.4s-.7,2.9-.4,4.6,1.7,2.1,1.9,3.2-.7,2.5-.3,3.7,3.2,1.5,3.5,5.5c.6,6.7-1.8,7.7-5.4,12.6l-3.6,23.5c9.2.8,18.2-2.3,27.4-2.3v2.7s-23.3,3.5-23.3,3.5l-.2,1.2c9.1.2,18-1.4,26.9-2.6.9,0,1.2,1.2,1.9,1.4,1.3.4,3.3-.2,4.8.5l1.2-18.5c.3-2.2,2.2-5.1,2.3-7.1,0-2.9-2.1-6.1-2.7-8.9.9-2.1,6.7-9.5,5.4-11.5l-4.3-.4c-.3-1.7,1-1.8,1.7-3.1s.8-3.3,1.4-4.1c1.9-2.5,5.4-4.6,7.4-8.2s.8-3.6,1.4-5.6,1.6-1.6,2.1-2.6c.7-1.5,1.5-6.9,1.3-8.5s-1.5-2.4-2-4.1c3.1-1.1,6.5-2.6,7.1-6.2,1.9.2,3.9-1,5.6-1,3.2,0,13,3.7,15.1,2.7s.8-1.1,1.5-1.3c2.1-.6,7.5,3.7,9.3,4.9,1.1-.7,3.7-4.4,5-4.1,2,.3,4.3,5.5,6.9,3.8.3,3.8,1.6,7.5,3.5,10.8s1.9,3.4,2.4,3.8c1.1.9,4.3.3,3.2,2.6-2.5.3-4.1,2.1-3,4.6s1.4,1.3,1.6,1.9c.3,1.1,1.6,10.1,1.6,11.3,0,2-1.9,4.6-2.2,6.7-1.2,7.2,4.9,9.9,7.3,15.8-.7.9-1.5,1.3-2.5.7-3.3-1.9-2.5-6.9-6.6-9.8s-2.9-.7-3.3,1.8c-1.2,8.4-.8,18.6-1.2,27.3-1.4,28.3-3.2,56.7-2,84.9,1.1,24.7,2.6,48.1,1.6,72.9-.3,6.6,0,15.5-.8,21.8-.2,1.5-1.1,2.3-1.5,3.6-.5,1.8-.8,6.1-.9,8.1-.3,5,0,21.8,1.9,25.8s3.8,5.2,4.2,5.6.6.7,1.2.8l36.4-2.7,1-.6c8.1-11.1,17.7-21.8,24.3-33.8s5.5-10.4,8.2-15.6c3.1-5.8,3.1-11.2,3.5-17.6l-11.8-77.7c-2.2-.6-4.1,1.4-6.4.7s-.9-2.6-2.2-3.3-1.8-.2-2.7-.2l2.7-3.3c.2-1.2-1.5-.2-2-.8,2.5-2.6,7.3-4.7,9.6-7.2s.8-4.6,1-6.8c.7-9.7,2.8-22.1,2.4-31.6s-1.9-10.4-2.5-15.5c-.4-.9-4.4-2-5.7-2.5-3.9-1.8-7.1-4.5-9.7-7.9l-6.3,5c-2.8-1.3-5.9-1.1-8.7-2.5s-5.6-3.8-5.6-6.2,1.3-6.6,2.4-7.4,9-3.8,9.6-3.7,1.1.9,1.6,1.1c1,.3,2.3,0,3.6.3,4.1,1.2,4.5,6.7,4.8,10.3.2.2,2.7-.7,3.2-.9.8-.3,4.9-2.4,5.3-2.7,1.1-1.1,2.2-5.8,3.6-7.1s6.7-3.4,8.7-5.3,1.9-3.6,3.2-4.3c2.3-1.3,10.2-.5,12.5.9s2.5,2.3,3,3.2,1.6,3.9,1.6,4.3v9.2c1.7.6,3,.9,4.9.8,9.4-.5,20.7-2.2,30.1-3.6,21.9-3.2,43-8.1,64.7-12,2.1-.3,4.7,1.5,6.6,1.5s3.1-1.5,4.7-1.5c3,0,6.1,2.9,7.5,5.3l-3.3,4c-21.5,4.9-40.1,16.7-58.3,28.5-12.1,7.8-23.2,16.8-35.2,24.6s-18.2,9.8-25,15.3-1.5,1-1.4,1.9c11.6,2,22.8,5.8,34.4,8,18.6,3.6,38.5,3.5,57.4,5.3l34.8-4.6c.6,0,1.4,2.5,1.3,3.1s-4.3,4.2-5.2,4.9c-8.9,7.7-18.8,14.6-27.8,22.2-10.9,9.3-20,25.1-30.1,35.8s-7.1,6-10,9.2-6,9.4-9.2,13c-12.3,13.9-23.7,30.1-35.8,44.6-2.9,3.5-5.9,6.9-9,10.1,1.4.7,2.5-1.3,3.8-1.4s1.2,1.6,3.2.9c3.5-1.3,12.2-11.7,15-15.1,8.6-10.5,12.1-19.7,18.9-30.7s13.2-12.6,19.9-20,9.7-14.7,17.8-21.6,2.9-2.9,4.5-1c0,1.1-6.7,9.4-8,10.7-4.3,4.8-9.9,9.2-13.9,14.2-3.3,4.2-5.9,9.6-9.2,13.8s-7.1,7.4-10.1,11.4c-4.9,6.4-8.9,14.1-13.6,20.8s-9.5,10.9-11.8,16c-1.7,3.9-1.5,9.8-2.8,14-1.2,3.9-5.2,6.2,0,9.6,2,1.3,4.4,1.6,6.6,2.4.3.4.3,4.8.2,5.7-.3,2.5-2.1,5.5-1.6,8.2s4.7,4.3,4.3,6.8c-2.5.4-5.5-.9-7.9-.3s-7.6,5-7.9,5.8,0,.6.2,1c.7,1,3.1,2.7,3.5,4,1.3,4.4-2.6,4.7-3.5,8s.3,5.1-1.8,5.7c-3,.8-2-5.7-4.8-6.6.7,5.9-2.4,16-8.5,18.2-4.5,1.7-10-3.6-14.6-4.4-4.7-5.4-8-11.9-7.5-19.3l-34.1,2.5-2.1,1.4-17.8,22.4c1.3.5,2.9-1,4.1-.9s1.5,1,2,1.1,1.3-.9,2.1-.7c-.5,2.5-1.1,5.6-4.2,5.8s-1.9-.7-3.1-.8c-5.7-.3-11.7,10.6-12.3,15.5s.5,3.9-.6,5.3-6.9,4.9-7.9,5c-2.5.2-4.1-2.3-6.9-1.9s-4.4.6-7,.2c-11.6-1.6-2.4-18.2,1.1-23.6,6.5-10.2,15.4-18.6,23.3-27.7h-6.7ZM442.2,120.6l-4-.8c-21.4,3.5-42.2,8.8-63.3,13.3-5.3,1.1-11.7,2.1-16.6,4.1s-4.3,2.4-6.6,3.2-9.7,1.9-10.4,2.5-.3.7-.4,1.2c-.8,6.8.7,15.3,0,22.2l-1.9,19.7,49.7-33c5.8-4.9,11.1-10.3,16.9-15.2s9.2-8,13.9-9.1.7,0,.6.6c-1,3.2-9.6,7.7-11.3,10.9l.6.2,32.3-17.3c.9-.5,1-1.5.7-2.5ZM358.5,134.2c-3.5-1.5-5.7,0-8.7,1.6l-3,2.3c4.2.4,8.7-1,11.7-3.9ZM187.5,143.2c0-1.7-2.4-1-3.6-1.4l-31.2,3.7,11.5.8,23.3-3.1ZM351.7,178.7c-.7,1.4-4.8,2.7-3.1,4.3l4.1-3.7-1-.6ZM439.5,211c-5.1.3-10,1.5-15.1,1.9-13.1,1.1-31.2-2.2-44.6-4s-21-2.4-30.9-4.3-6.4-1.7-9.6-2.7c-.2,20.1,4.3,39.6,7.8,59.2.2.2,3.5-1.2,3.9.2s-3.4,3.1-3.2,4.7l2.6,15.4c.5.7.6.1,1-.2,4.1-3.2,8.6-8.7,12.5-12.5,5.7-5.4,11.5-11.2,18.5-15.1s8.8-3.5,12-6c8.3-6.4,15.3-21.7,24.3-28.4l10.2-4.5c.8.9-3.1,5.4-3.5,6.8s0,.7.6.6l13.5-11.3ZM419.6,228.1c.3.3,5.4-3.7,5.5-4.1,0-.5-.7-.6-1.4-.2s-4.7,3.7-4.1,4.3ZM369.5,276.5c-.8-.1-1,0-1.6.6s-3.6,4.4-3.9,5.1-.5.4.2,1c.7.1,5.7-6.2,5.3-6.6ZM362,286.2c-.2-.7,2.5-2.8,1-3.1s-1.6,1.6-2.1,2.1l1.1,1ZM356.2,296c.9.8,3.3-2.8,3.7-3.5s1-.4,0-1.2c-.6,0-4,4.4-3.7,4.7ZM339.3,336.1c-.5-.5-4.3,2.9-4.9,3.5-1.3,1.2-5.6,4.8-1.4,4.1l6.3-7.6ZM118.2,337.6v8.4l3.5,10.7c1,.1.6,0,.8-.6,1.1-3.9,1.6-12.9-.5-16.3s-2.3-2.4-3.9-2.2Z"/>
    <path d="M63.4,207.5l.2,2c2,.2,5.5,2.1,6.3,3.9s-4,5.8-5.6,6.1-4.6-.9-6-2.1c-4.3-3.8.9-6,3.6-8.2s1.1-.1.7-1.2-1.5.6-2.3.1-.6-1.2-1.2-1.7c-1-.9-2.8-1.5-3.5-2.3-1.3-1.4-3.1-7-2.7-9s6.8-7.1,8.4-7.2,2.1.6,3.1.6,1.2-.5,1.9-.5c3.4,0,8.8,5.5,9.3,8.7s-.6,5.2-1.3,6-7.2,5-8.1,5.3c-1.3.3-1.5-.5-2.7-.6Z"/>
    <path d="M86.1,255c-.8,2.6,2.1,2.8,4,2.3s0-1.8,2.5-.9,3.4,4.1.1,5c-3.1.8-2.3-1.7-4.3-2.9-1.2,3-1.7,6.4-5.7,6.6s-5.2-3-5-5.1c.2-3.9,5.3-4.7,8.4-5Z"/>
    <path d="M8.9,217.7c.8-.2,4.3,1.9,4.8,2.5,2.6,3.1-4.5,10.1-8.4,4.1s1.8-4.7,3.6-6.6Z"/>
    <path d="M428.2,340.8c-1.4-.4-8-4.1-6.9-5.9,4-2.8,8.8,1.5,6.9,5.9Z"/>
    <path d="M28.8,225.1c4.6-1.5,5.1,4.6,2.1,5.6s-3.8-5.1-2.1-5.6Z"/>
    <path d="M165.4,243.8c4.1-1.2,6.3,4,.7,3.8s-2.9-3.2-.7-3.8Z"/>
    <path d="M63,227c-.9-.1-3.7.8-4.2,0-1.2-1.9,1.9-4.4,2.7-4.1,1.2.5,1.8,2.9,1.6,4.1Z"/>
    <path d="M2.7,263.6l-2.9,1.5c-4.5-2.8,2.1-6.2,2.9-1.5Z"/>
    <path d="M284.1,403.1c.2.8-.3,1.1-.6,1.6-.7,1.1-3.3,4.3-4.2,5.2s-2.2.7-1.5-.3,3.8-5.1,4.7-5.9.8-.7,1.6-.6Z"/>
    <path d="M349.5,79.3h-2.3s.4-2.7.4-2.7c2.3-.2,2.4.8,1.9,2.7Z"/>
    <path d="M187.1,194.6c-.6,1.8-.2,3.5-.7,5.3s.3,1.1-.8.9l.4-6.2h1.2Z"/>
    <path d="M66.5,225.4c-.9.7-2.9-1-2.3-1.9s1.8-.7,1.9-.6c.9.4.9,2.1.3,2.5Z"/>
    <path d="M-14.9,382.9c0,2-2.9,1-4.3,1.2v-1.2s4.3,0,4.3,0Z"/>
    <path d="M183.9,46.2c-.2.2-3.7-2.1-3.1-3.1.3-.3,3.9,2.2,3.1,3.1Z"/>
    <path d="M369.3,229.5c2.1,0,3.8,1.4,5,3,5.3,6.8-1.7,7.7-6.2,11.3-.9-1.4-3.9-2.4-4.7-3.5s-1.6-4.5-1.6-5.5c.1-4,4-5.4,7.5-5.3Z"/>
    <path d="M364.5,221.1c-.2-.4-.2-3.7,0-4.3.7-2.3,6.1-2.9,7.5-.6,2.1,3.3-1.1,7.2-4.7,6.6s-2.8-1.5-2.9-1.6Z"/>
    <path d="M387.1,230.9c.6.8-4.6,5.7-5.9,6.1-2.7.7-6-4.4-2.4-6.3,2.6-1.3,2.9.3,4.1.2s1.2-1.1,1.6-1.1,1.8,1.2,2.6,1.1Z"/>
  </g>
</svg>